HIERARCHY
ROOT Hips
{
	OFFSET 84.111900 -16.897814 83.209198
	CHANNELS 6 Xposition Yposition Zposition Xrotation Yrotation Zrotation
	JOINT spine
	{
		OFFSET 0.000000 -0.393702 6.846367
		CHANNELS 3 Xrotation Yrotation Zrotation
		JOINT spine1
		{
			OFFSET 0.000000 -0.000002 9.496208
			CHANNELS 3 Xrotation Yrotation Zrotation
			JOINT spine2
			{
				OFFSET 0.000000 0.000000 9.099091
				CHANNELS 3 Xrotation Yrotation Zrotation
				JOINT Neck
				{
					OFFSET 0.000000 -1.113785 23.361206
					CHANNELS 3 Xrotation Yrotation Zrotation
					JOINT Head
					{
						OFFSET 0.000000 -0.000002 7.058014
						CHANNELS 3 Xrotation Yrotation Zrotation
						End Site
						{
							OFFSET 0.000000 5.634187 17.084396
						}
					}
				}
				JOINT RightShoulder
				{
					OFFSET -3.831360 0.533489 9.826309
					CHANNELS 3 Xrotation Yrotation Zrotation
					JOINT RightArm
					{
						OFFSET 0.000000 -0.000002 12.888092
						CHANNELS 3 Xrotation Yrotation Zrotation
						JOINT RightArmRoll
						{
							OFFSET 0.000000 -0.000002 6.506165
							CHANNELS 3 Xrotation Yrotation Zrotation
							JOINT RightForeArm
							{
								OFFSET 0.000000 -0.000002 18.950104
								CHANNELS 3 Xrotation Yrotation Zrotation
								JOINT RightForeArmRoll
								{
									OFFSET 0.000000 -0.000002 7.300919
									CHANNELS 3 Xrotation Yrotation Zrotation
									JOINT RightHand
									{
										OFFSET 0.000000 -0.000002 14.651398
										CHANNELS 3 Xrotation Yrotation Zrotation
										End Site
										{
											OFFSET 0.000000 0.000000 0.100006
										}
									}
								}
							}
						}
					}
				}
				JOINT LeftShoulder
				{
					OFFSET 3.831360 0.533489 9.826309
					CHANNELS 3 Xrotation Yrotation Zrotation
					JOINT LeftArm
					{
						OFFSET 0.000000 -0.000002 12.888092
						CHANNELS 3 Xrotation Yrotation Zrotation
						JOINT LeftArmRoll
						{
							OFFSET 0.000000 -0.000002 6.506165
							CHANNELS 3 Xrotation Yrotation Zrotation
							JOINT LeftForeArm
							{
								OFFSET 0.000000 -0.000002 18.950104
								CHANNELS 3 Xrotation Yrotation Zrotation
								JOINT LeftForeArmRoll
								{
									OFFSET 0.000000 -0.000002 7.300919
									CHANNELS 3 Xrotation Yrotation Zrotation
									JOINT LeftHand
									{
										OFFSET 0.000000 -0.000002 14.651398
										CHANNELS 3 Xrotation Yrotation Zrotation
										End Site
										{
											OFFSET 0.000000 0.000000 0.100006
										}
									}
								}
							}
						}
					}
				}
			}
		}
	}
	JOINT RightUpLeg
	{
		OFFSET -6.068367 0.933477 -1.112778
		CHANNELS 3 Xrotation Yrotation Zrotation
		JOINT RightUpLegRoll
		{
			OFFSET 0.000000 -0.000003 17.179596
			CHANNELS 3 Xrotation Yrotation Zrotation
			JOINT RightLeg
			{
				OFFSET 0.000000 0.000004 -21.274300
				CHANNELS 3 Xrotation Yrotation Zrotation
				JOINT RightLegRoll
				{
					OFFSET 0.000000 -0.000004 21.343903
					CHANNELS 3 Xrotation Yrotation Zrotation
					JOINT RightFoot
					{
						OFFSET 0.000000 -0.000003 17.765198
						CHANNELS 3 Xrotation Yrotation Zrotation
						JOINT RightToeBase
						{
							OFFSET 0.000000 -0.000003 14.850792
							CHANNELS 3 Xrotation Yrotation Zrotation
							End Site
							{
								OFFSET 0.006294 0.829003 7.192139
							}
						}
					}
				}
			}
		}
	}
	JOINT LeftUpLeg
	{
		OFFSET 6.068367 0.933477 -1.112778
		CHANNELS 3 Xrotation Yrotation Zrotation
		JOINT LeftUpLegRoll
		{
			OFFSET 0.000000 -0.000003 17.179703
			CHANNELS 3 Xrotation Yrotation Zrotation
			JOINT LeftLeg
			{
				OFFSET 0.000000 -0.000004 21.274200
				CHANNELS 3 Xrotation Yrotation Zrotation
				JOINT LeftLegRoll
				{
					OFFSET 0.000000 -0.000003 21.541199
					CHANNELS 3 Xrotation Yrotation Zrotation
					JOINT LeftFoot
					{
						OFFSET 0.000000 -0.000003 17.567902
						CHANNELS 3 Xrotation Yrotation Zrotation
						JOINT LeftToeBase
						{
							OFFSET 0.000000 -0.000003 14.850800
							CHANNELS 3 Xrotation Yrotation Zrotation
							End Site
							{
								OFFSET -0.028214 0.829004 7.192123
							}
						}
					}
				}
			}
		}
	}
}
MOTION
Frames: 9
Frame Time: 0.041667
87.339302 -14.801613 85.427498 -0.052211 11.068599 55.246422 -3.867196 0.945060 0.243480 -3.736635 1.875158 0.541262 -2.091207 1.881509 0.518763 3.208913 -11.693245 4.062858 12.389552 15.037539 3.043000 -30.533985 -41.179528 -37.772462 229.593640 -156.561842 299.227582 -0.000004 0.000005 -0.000023 98.057338 -6.713492 15.622371 -0.000009 -0.000009 -2.999999 -4.999731 -7.999985 0.000000 -18.899217 40.341279 22.391549 73.348315 99.158207 -120.475221 0.000002 0.000003 0.000015 -0.035088 -4.903367 -0.638000 -0.000000 -0.000001 3.022958 -4.999444 8.001117 0.000575 10.528951 -174.871353 3.120646 -179.999991 0.000004 -1.599994 162.080840 0.642257 -0.647326 -0.000000 -0.000004 0.106902 66.648576 6.977298 2.072453 30.041706 -6.866824 6.383276 -41.631246 179.707004 8.045241 -0.000006 -0.000006 -1.067390 -40.839719 -5.182104 -0.021223 -0.000001 -0.000001 -0.852388 70.188786 -6.988813 -1.794717 25.456955 7.355616 -0.000001 
87.305397 -14.818115 85.445099 -0.123730 11.172874 55.629073 -3.854381 0.952591 0.256797 -3.711250 1.889492 0.568112 -2.065822 1.896158 0.545446 3.049922 -11.068189 3.954450 12.407331 14.341669 2.987928 -30.106132 -40.952479 -37.215942 230.191882 -156.727570 298.587020 -0.000005 0.000005 -0.000023 97.567217 -6.567860 15.104808 -0.000009 -0.000008 -3.000001 -4.999728 -7.999987 -0.000001 -19.188988 40.745309 22.773135 75.626184 99.046356 -122.627181 -0.000001 0.000001 0.000015 -0.033681 -4.735944 -0.617995 -0.000001 -0.000001 3.023707 -4.999441 8.001115 0.000581 10.592724 -175.084782 3.010081 -179.999991 0.000004 -1.596998 162.206379 0.601778 -0.647867 0.000001 -0.000006 0.104952 66.631016 6.975912 2.076981 30.017192 -6.870122 6.372188 -41.746564 179.752301 8.128694 -0.000006 -0.000003 -1.064659 -40.845989 -5.252622 -0.042722 -0.000000 0.000000 -0.851105 70.178753 -6.988096 -1.797523 25.456955 7.355616 0.000000 
87.306000 -14.858711 85.428596 -0.194757 11.273636 56.000769 -3.840656 0.959533 0.269456 -3.684044 1.902704 0.593608 -2.038613 1.909672 0.570774 2.908415 -10.402678 3.857899 12.398600 13.603246 2.947420 -29.651309 -40.703700 -36.622948 230.810397 -156.913009 298.012683 -0.000002 0.000004 -0.000022 96.985264 -6.422692 14.580401 -0.000008 -0.000005 -3.000002 -4.999730 -7.999985 -0.000000 -19.491577 41.164153 23.168644 78.048879 98.955262 -124.920472 0.000001 0.000000 0.000015 -0.032287 -4.561476 -0.596739 0.000000 -0.000004 3.024791 -4.999440 8.001112 0.000582 10.654455 -175.294169 2.898057 -179.999991 0.000005 -1.592999 162.331808 0.565985 -0.647726 -0.000003 -0.000003 0.102828 66.614692 6.974470 2.081519 29.995483 -6.872852 6.364115 -41.860529 179.791466 8.206703 -0.000005 -0.000003 -1.062110 -40.856549 -5.319104 -0.063186 -0.000001 0.000000 -0.850391 70.171656 -6.987228 -1.800415 25.456955 7.355610 -0.000002 
87.282799 -14.903514 85.426399 -0.265834 11.368484 56.363100 -3.825114 0.965930 0.281220 -3.653163 1.914885 0.617254 -2.007740 1.922141 0.594274 2.774578 -9.690385 3.773557 12.372056 12.816789 2.920735 -29.167896 -40.416562 -35.995787 231.479400 -157.113393 297.488561 -0.000002 0.000005 -0.000022 96.332066 -6.259871 14.040596 -0.000009 -0.000009 -3.000000 -4.999728 -7.999984 -0.000001 -19.811742 41.599400 23.584645 80.627296 98.882220 -127.358795 0.000002 0.000003 0.000018 -0.030893 -4.375625 -0.573858 -0.000001 -0.000002 3.026408 -4.999440 8.001113 0.000580 10.716937 -175.500536 2.784472 -179.999991 0.000004 -1.589001 162.458795 0.535867 -0.646618 0.000001 -0.000004 0.100411 66.598600 6.973044 2.086046 29.975750 -6.875161 6.357909 -41.969726 179.826026 8.279842 -0.000003 -0.000002 -1.059731 -40.869902 -5.381997 -0.082679 -0.000000 0.000001 -0.849959 70.166192 -6.986182 -1.803576 25.456955 7.355615 -0.000000 
87.278503 -14.931411 85.417709 -0.336961 11.458709 56.716439 -3.808028 0.971835 0.292302 -3.619198 1.926135 0.639479 -1.973775 1.933653 0.616360 2.648011 -8.938570 3.700169 12.330167 11.989679 2.905265 -28.659931 -40.098302 -35.338514 232.186462 -157.326127 297.004192 -0.000004 0.000003 -0.000023 95.610450 -6.080389 13.488213 -0.000009 -0.000010 -3.000000 -4.999728 -7.999985 -0.000001 -20.148332 42.047857 24.019620 83.333485 98.829593 -129.915771 -0.000000 0.000001 0.000014 -0.029503 -4.180075 -0.549550 -0.000001 -0.000001 3.028482 -4.999442 8.001115 0.000582 10.779366 -175.703871 2.669280 -179.999991 0.000004 -1.586003 162.587394 0.509536 -0.645201 -0.000002 -0.000008 0.097732 66.582829 6.971645 2.090458 29.957620 -6.877122 6.353394 -42.075147 179.856749 8.347922 -0.000005 -0.000005 -1.057480 -40.885769 -5.441606 -0.101314 0.000000 0.000000 -0.849774 70.161984 -6.985054 -1.806845 25.456959 7.355613 -0.000001 
87.248901 -14.970514 85.422211 -0.408135 11.545415 57.061384 -3.789701 0.977311 0.302911 -3.582739 1.936582 0.660696 -1.937316 1.944349 0.637450 2.528290 -8.154583 3.636411 12.275633 11.129014 2.898478 -28.131282 -39.756322 -34.655127 232.918685 -157.549050 296.549301 -0.000003 0.000004 -0.000021 94.822970 -5.885568 12.926083 -0.000009 -0.000009 -3.000001 -4.999731 -7.999987 -0.000000 -20.500246 42.506361 24.472103 86.134279 98.799164 -132.559833 0.000001 0.000002 0.000017 -0.028087 -3.976521 -0.524069 -0.000003 -0.000005 3.030945 -4.999441 8.001112 0.000581 10.841038 -175.904173 2.552452 -179.999991 0.000007 -1.582004 162.717659 0.486982 -0.643492 -0.000001 -0.000003 0.094805 66.567174 6.970296 2.094766 29.941063 -6.878774 6.350461 -42.178191 179.882171 8.412735 -0.000004 -0.000005 -1.055340 -40.903582 -5.498280 -0.119156 -0.000000 -0.000000 -0.849813 70.159013 -6.983821 -1.810114 25.456955 7.355612 -0.000000 
87.239891 -15.004514 85.412498 -0.479354 11.629806 57.398328 -3.770414 0.982419 0.313240 -3.544368 1.946314 0.681332 -1.898945 1.954338 0.657964 2.414972 -7.345712 3.580904 12.210895 10.241907 2.897982 -27.585286 -39.398075 -33.949237 233.663012 -157.780006 296.114901 -0.000004 0.000004 -0.000023 93.972229 -5.676801 12.357025 -0.000009 -0.000007 -3.000002 -4.999729 -7.999985 -0.000001 -20.866069 42.971592 24.940335 88.995111 98.792020 -135.257621 0.000001 0.000002 0.000016 -0.026645 -3.766671 -0.497623 -0.000001 0.000001 3.033731 -4.999442 8.001114 0.000579 10.901043 -176.102385 2.433756 -179.999991 0.000005 -1.577005 162.849318 0.468217 -0.640507 -0.000002 -0.000005 0.091654 66.551417 6.968970 2.099199 29.925921 -6.880124 6.348927 -42.279759 179.903822 8.473438 -0.000001 -0.000006 -1.053264 -40.923236 -5.552322 -0.136327 -0.000000 -0.000001 -0.850048 70.156978 -6.982501 -1.813511 25.456952 7.355614 -0.000001 
87.233398 -15.030714 85.383698 -0.550620 11.712876 57.727980 -3.750467 0.987218 0.323512 -3.504664 1.955450 0.701817 -1.859242 1.963718 0.678333 2.307559 -6.519226 3.532218 12.138368 9.335603 2.901497 -27.024984 -39.031037 -33.223813 234.406300 -158.017123 295.692386 -0.000002 0.000004 -0.000022 93.060597 -5.455357 11.783849 -0.000010 -0.000011 -3.000001 -4.999731 -7.999988 -0.000000 -21.244390 43.440666 25.422577 91.879493 98.808433 -137.974356 0.000000 0.000001 0.000015 -0.025154 -3.552205 -0.470455 0.000000 0.000001 3.036792 -4.999443 8.001118 0.000580 10.958549 -176.299531 2.312982 -179.999991 0.000005 -1.573003 162.982452 0.452290 -0.637568 -0.000002 -0.000003 0.088304 66.535577 6.967699 2.103336 29.912059 -6.881218 6.348646 -42.381334 179.920952 8.531171 -0.000003 -0.000003 -1.051240 -40.944255 -5.604051 -0.152910 -0.000001 -0.000001 -0.850446 70.155653 -6.981127 -1.816951 25.456957 7.355609 -0.000002 
87.216095 -15.070211 85.382011 -0.621927 11.795925 58.050734 -3.730141 0.991770 0.333928 -3.464208 1.964087 0.722561 -1.818788 1.972606 0.698977 2.205553 -5.682386 3.488885 12.060229 8.417277 2.906918 -26.452764 -38.662863 -32.481514 235.134945 -158.258570 295.273640 -0.000002 0.000005 -0.000021 92.090553 -5.223045 11.210360 -0.000011 -0.000009 -3.000001 -4.999730 -7.999983 -0.000001 -21.633815 43.910378 25.916979 94.751765 98.847884 -140.675860 -0.000000 -0.000001 0.000016 -0.023615 -3.334838 -0.442779 -0.000001 0.000000 3.040029 -4.999443 8.001117 0.000581 11.012876 -176.494602 2.190310 -179.999991 0.000003 -1.568001 163.116993 0.439215 -0.633700 -0.000003 -0.000005 0.084784 66.519533 6.966437 2.107588 29.899399 -6.882096 6.349494 -42.483722 179.933616 8.586457 -0.000003 -0.000004 -1.049222 -40.966259 -5.653808 -0.168974 -0.000001 -0.000000 -0.850985 70.154949 -6.979664 -1.820643 25.456952 7.355616 -0.000003 
